<svg xmlns="http://www.w3.org/2000/svg" id="Academy-Medical-logo-WHITE" width="348.51" height="140.555" viewBox="0 0 348.51 140.555"><g id="Group_531" data-name="Group 531" transform="translate(41.876 119.24)"><path id="Path_108" data-name="Path 108" d="M193.442,392.894c.128,0,.151-.083.128-.158l-2.338-6.517c-.03-.106-.053-.234-.128-.234s-.128.136-.158.234l-2.391,6.487c-.03.106,0,.181.106.181h4.782Zm-5.3,1.32c-.128,0-.181.053-.234.211l-1.4,3.771a5.052,5.052,0,0,0-.392,1.607c0,.475.234.815,1.041.815h.392c.309,0,.392.053.392.211,0,.211-.151.264-.445.264-.83,0-1.946-.083-2.753-.083-.287,0-1.72.083-3.07.083-.339,0-.5-.053-.5-.264,0-.158.106-.211.317-.211a6.911,6.911,0,0,0,.807-.053c1.2-.158,1.69-1.056,2.21-2.376l6.524-16.563c.309-.769.468-1.056.724-1.056.234,0,.392.234.649.845.626,1.448,4.782,12.211,6.449,16.224.988,2.376,1.742,2.745,2.285,2.874a5.293,5.293,0,0,0,1.094.106c.211,0,.339.03.339.211,0,.211-.234.264-1.192.264-.935,0-2.836,0-4.918-.053-.468-.03-.777-.03-.777-.211,0-.158.106-.211.362-.234a.43.43,0,0,0,.234-.6L194.2,394.4a.248.248,0,0,0-.256-.189Z" transform="translate(-181.17 -380.57)" fill="#fff"></path><path id="Path_109" data-name="Path 109" d="M213.049,400.015a8.747,8.747,0,0,1-.181-12.769c1.667-1.478,3.847-2.376,7.256-2.376a23.782,23.782,0,0,1,3.326.234c.86.128,1.614.287,2.285.37.256.03.339.136.339.264,0,.189-.053.445-.106,1.237-.053.739-.053,1.976-.075,2.429-.03.317-.106.551-.317.551-.181,0-.234-.181-.234-.475a3.146,3.146,0,0,0-.882-2.082,6.423,6.423,0,0,0-4.42-1.32,6.1,6.1,0,0,0-4.314,1.267c-1.69,1.478-2.1,3.643-2.1,5.83,0,5.333,4.058,7.859,7.12,7.859,2.029,0,3.145-.158,4.058-1.184a3.589,3.589,0,0,0,.777-1.5c.053-.347.106-.453.287-.453.151,0,.256.211.256.392a19.187,19.187,0,0,1-.5,2.979.778.778,0,0,1-.6.656,13.179,13.179,0,0,1-4.133.505c-3.115.015-5.762-.649-7.844-2.414" transform="translate(-188.302 -381.627)" fill="#fff"></path><path id="Path_110" data-name="Path 110" d="M243.022,395.207c.106,0,.128-.053.106-.128l-2.157-5.7c-.023-.083-.053-.211-.106-.211-.075,0-.106.128-.128.211l-2.21,5.672c-.053.106,0,.158.083.158Zm-4.888,1.237c-.128,0-.151.03-.2.158l-1.222,3.009a4.112,4.112,0,0,0-.339,1.373c0,.392.2.634.905.634h.339c.287,0,.339.106.339.234,0,.189-.128.241-.362.241-.754,0-1.818-.083-2.549-.083-.234,0-1.456.083-2.647.083-.287,0-.415-.053-.415-.241a.231.231,0,0,1,.264-.234c.211,0,.468-.023.679-.023,1.041-.158,1.426-.845,1.893-1.976l5.981-14.112c.256-.634.445-.9.679-.9.339,0,.437.211.679.709.543,1.237,4.367,10.416,5.823,13.825.882,2.029,1.539,2.323,1.946,2.4a5.381,5.381,0,0,0,.86.075c.2,0,.309.083.309.234,0,.189-.128.241-.988.241-.807,0-2.474,0-4.39-.053-.415-.03-.679-.03-.679-.189,0-.128.053-.211.287-.234a.349.349,0,0,0,.2-.5l-1.765-4.51a.22.22,0,0,0-.234-.158h-5.393Z" transform="translate(-193.656 -381.563)" fill="#fff"></path><path id="Path_111" data-name="Path 111" d="M263.958,394.266c0,2.376.03,4.088.053,4.533a4.424,4.424,0,0,0,.256,1.584c.287.422,1.2.9,2.994.9a7.14,7.14,0,0,0,4.993-1.531c1.478-1.245,1.954-3.243,1.954-5.566a7.353,7.353,0,0,0-2.127-5.589,9.126,9.126,0,0,0-6.4-2.134,4.772,4.772,0,0,0-1.4.158.392.392,0,0,0-.287.445c-.03.769-.03,2.61-.03,4.382v2.821Zm-3.07-2.482c0-3.4,0-4.035-.023-4.752-.053-.762-.264-1-.988-1.214a4.106,4.106,0,0,0-.905-.083c-.234,0-.392-.075-.392-.234s.181-.211.52-.211c1.192,0,2.647.053,3.3.053.7,0,2.338-.053,3.718-.053,2.859,0,6.705,0,9.2,2.557a7.906,7.906,0,0,1,2.157,5.7,8.751,8.751,0,0,1-2.5,6.245c-1.041,1.056-3.454,2.64-7.671,2.64-.83,0-1.818-.083-2.73-.136-.913-.083-1.742-.128-2.316-.128-.256,0-.754.023-1.3.023-.543.03-1.116.053-1.584.053-.287,0-.437-.083-.437-.234,0-.106.075-.241.362-.241a3.366,3.366,0,0,0,.807-.075c.468-.106.6-.528.679-1.184.106-.95.106-2.715.106-4.774v-3.952Z" transform="translate(-200.193 -381.73)" fill="#fff"></path><path id="Path_112" data-name="Path 112" d="M288.843,392.148c0-3.4,0-4.035-.03-4.752-.053-.762-.256-1-.988-1.207a4.131,4.131,0,0,0-.913-.083c-.234,0-.392-.075-.392-.234s.181-.211.52-.211c1.192,0,2.647.053,3.3.053.732,0,5.8.03,6.238,0,.415-.023.777-.106.965-.128a2.092,2.092,0,0,1,.362-.106c.128,0,.158.106.158.211a10.319,10.319,0,0,0-.181,1.448c-.023.234-.075,1.214-.128,1.478-.03.106-.075.37-.256.37-.158,0-.181-.106-.181-.294a2.137,2.137,0,0,0-.158-.815c-.181-.392-.362-.709-1.508-.822-.385-.053-3.115-.106-3.583-.106-.106,0-.158.083-.158.211V392.7c0,.136.03.241.158.241.52,0,3.485,0,4.005-.053.551-.053.883-.106,1.094-.347.181-.158.264-.287.362-.287a.215.215,0,0,1,.181.234c0,.128-.053.5-.181,1.637-.053.445-.106,1.343-.106,1.5,0,.189-.03.5-.234.5-.158,0-.211-.075-.211-.181-.03-.234-.03-.528-.083-.815-.128-.445-.415-.792-1.275-.867-.415-.053-3.017-.106-3.583-.106-.106,0-.128.106-.128.241v1.8c0,.769-.023,2.663,0,3.326.053,1.531.754,1.871,3.092,1.871a6.079,6.079,0,0,0,2.157-.287c.573-.264.83-.739.988-1.659.053-.241.106-.339.256-.339.181,0,.211.287.211.528a15.71,15.71,0,0,1-.309,2.481c-.158.581-.362.581-1.222.581-1.712,0-3.092-.023-4.209-.083-1.116-.023-1.976-.053-2.647-.053-.256,0-.754.03-1.3.03-.543.023-1.116.053-1.584.053-.287,0-.445-.083-.445-.241,0-.106.083-.234.362-.234a3.313,3.313,0,0,0,.807-.083c.468-.106.6-.528.679-1.184.106-.95.106-2.715.106-4.774v-3.975Z" transform="translate(-207.06 -381.777)" fill="#fff"></path><path id="Path_113" data-name="Path 113" d="M310.232,385.631c.053-.37.256-.581.445-.581.234,0,.385.106.7.709l6.132,12.506,6.14-12.656c.181-.37.385-.551.6-.551.181,0,.438.234.52.709l2.082,13.848c.2,1.4.415,2.006,1.116,2.217a4.608,4.608,0,0,0,1.3.211c.2,0,.362.083.362.211,0,.181-.256.264-.6.264-.573,0-3.816-.106-4.729-.158-.543-.03-.679-.136-.679-.264,0-.106.106-.181.256-.234.128-.053.181-.317.106-.95l-1.275-9.707h-.075l-4.91,10.024c-.52,1.056-.649,1.267-.913,1.267-.287,0-.543-.445-.913-1.131-.543-1.026-2.361-4.458-2.625-5.091-.181-.422-1.531-3.243-2.285-4.8h-.075l-1.094,8.757a7.325,7.325,0,0,0-.075,1.056c0,.422.309.581.7.656a3.655,3.655,0,0,0,.807.106c.211,0,.362.106.362.211,0,.211-.211.264-.551.264-.958,0-2-.083-2.414-.083-.445,0-1.531.083-2.263.083-.234,0-.415-.053-.415-.264,0-.106.128-.211.362-.211a4.068,4.068,0,0,0,.7-.053c.626-.075.83-.973.935-1.712Z" transform="translate(-211.839 -381.671)" fill="#fff"></path><path id="Path_114" data-name="Path 114" d="M343.154,396.853a4.533,4.533,0,0,0-.52-2.346c-.158-.347-3.273-5.272-4.081-6.464a5.16,5.16,0,0,0-1.478-1.584,2.267,2.267,0,0,0-.965-.294c-.181,0-.339-.075-.339-.234s.158-.211.445-.211c.392,0,2.1.053,2.859.053.49,0,1.561-.053,2.595-.053.211,0,.339.053.339.211,0,.189-.158.189-.52.287-.181.053-.309.158-.309.347a1.751,1.751,0,0,0,.287.762c.415.686,3.409,5.936,3.794,6.569.287-.528,3.07-5.333,3.409-6.011a2.989,2.989,0,0,0,.339-1.184c0-.211-.106-.422-.49-.5-.211-.053-.415-.083-.415-.264,0-.158.128-.211.392-.211.754,0,1.561.053,2.233.053.49,0,2.006-.053,2.444-.053.264,0,.415.053.415.181,0,.158-.181.264-.437.264a2.766,2.766,0,0,0-.988.264,2.958,2.958,0,0,0-1.192,1.056,76.69,76.69,0,0,0-4.45,7.173,5.279,5.279,0,0,0-.287,2.24v1.8c0,.37,0,1.29.053,2.24.053.656.256,1.086.935,1.184a8.679,8.679,0,0,0,1.146.075c.264,0,.392.128.392.241,0,.158-.181.234-.49.234-1.426,0-2.964-.083-3.59-.083-.573,0-2.1.083-2.964.083-.309,0-.49-.053-.49-.234,0-.106.106-.241.362-.241a3.534,3.534,0,0,0,.807-.075c.468-.106.649-.528.7-1.184.075-.95.075-1.871.075-2.24v-1.848Z" transform="translate(-219.163 -381.835)" fill="#fff"></path><path id="Path_115" data-name="Path 115" d="M372.982,381.264c.075-.453.234-.686.445-.686s.362.128.7.815l7.1,14.874,7.067-15.062c.211-.422.339-.634.573-.634s.392.264.468.815l2.368,16.3c.234,1.659.49,2.429,1.275,2.663a5.24,5.24,0,0,0,1.607.264c.234,0,.415.03.415.189,0,.211-.309.294-.671.294-.649,0-4.239-.083-5.28-.158-.6-.053-.754-.128-.754-.294,0-.128.106-.211.287-.287.158-.053.234-.4.128-1.131l-1.561-11.608h-.106l-5.664,11.978c-.6,1.237-.732,1.478-.965,1.478s-.5-.528-.913-1.32c-.626-1.214-2.678-5.25-2.987-5.989-.234-.551-1.8-3.877-2.708-5.853H373.7l-1.35,10.5a10.336,10.336,0,0,0-.075,1.237c0,.505.339.739.777.845a4.935,4.935,0,0,0,1.094.128c.211,0,.385.053.385.189,0,.234-.234.294-.618.294-1.094,0-2.263-.083-2.73-.083-.49,0-1.742.083-2.572.083-.256,0-.468-.053-.468-.294,0-.128.151-.189.415-.189a3.483,3.483,0,0,0,.784-.075c.732-.158.935-1.184,1.064-2.082Z" transform="translate(-227.117 -380.57)" fill="#fff"></path><path id="Path_116" data-name="Path 116" d="M408.816,391.725c0-3.4,0-4.035-.03-4.752-.053-.762-.256-1-.988-1.214a4.1,4.1,0,0,0-.905-.083c-.234,0-.392-.075-.392-.234s.181-.211.52-.211c1.2,0,2.655.053,3.3.053.724,0,5.8.03,6.238,0,.415-.023.777-.106.965-.128a2.1,2.1,0,0,1,.362-.106c.128,0,.158.106.158.211a10.323,10.323,0,0,0-.181,1.448c-.03.234-.083,1.214-.128,1.478-.03.106-.075.37-.256.37-.158,0-.181-.106-.181-.294a2.137,2.137,0,0,0-.158-.815c-.181-.392-.37-.709-1.508-.822-.385-.053-3.115-.106-3.583-.106-.106,0-.158.083-.158.211v5.536c0,.136.03.241.158.241.52,0,3.485,0,4.005-.053.551-.053.882-.106,1.094-.347.181-.158.264-.287.362-.287s.181.106.181.234-.053.5-.181,1.637c-.053.445-.106,1.343-.106,1.5,0,.189-.03.5-.234.5-.158,0-.211-.075-.211-.181-.023-.234-.023-.528-.075-.815-.128-.445-.415-.792-1.275-.867-.415-.053-3.017-.106-3.583-.106-.106,0-.128.106-.128.241v1.8c0,.769-.023,2.663,0,3.326.053,1.531.754,1.871,3.093,1.871a6.08,6.08,0,0,0,2.157-.287c.573-.264.83-.739.988-1.659.053-.241.106-.347.256-.347.181,0,.211.287.211.528a15.722,15.722,0,0,1-.309,2.481c-.158.581-.362.581-1.222.581-1.72,0-3.093-.023-4.209-.083-1.116-.023-1.976-.053-2.648-.053-.256,0-.754.03-1.3.03-.543.023-1.116.053-1.584.053-.287,0-.445-.083-.445-.241,0-.106.075-.234.362-.234a3.273,3.273,0,0,0,.807-.083c.468-.106.6-.528.679-1.184.106-.95.106-2.715.106-4.774v-3.96Z" transform="translate(-236.544 -381.671)" fill="#fff"></path><path id="Path_117" data-name="Path 117" d="M432.075,394.266c0,2.376.023,4.088.053,4.533a4.24,4.24,0,0,0,.264,1.584c.287.422,1.192.9,2.987.9a7.141,7.141,0,0,0,4.993-1.531c1.486-1.245,1.954-3.243,1.954-5.566a7.353,7.353,0,0,0-2.127-5.589,9.126,9.126,0,0,0-6.4-2.134,4.772,4.772,0,0,0-1.4.158.392.392,0,0,0-.287.445c-.023.769-.023,2.61-.023,4.382v2.821Zm-3.07-2.482c0-3.4,0-4.035-.023-4.752-.053-.762-.264-1-.988-1.214a4.133,4.133,0,0,0-.913-.083c-.234,0-.392-.075-.392-.234s.181-.211.52-.211c1.192,0,2.647.053,3.3.053.7,0,2.338-.053,3.718-.053,2.859,0,6.705,0,9.2,2.557a7.907,7.907,0,0,1,2.157,5.7,8.719,8.719,0,0,1-2.5,6.245c-1.041,1.056-3.454,2.64-7.671,2.64-.83,0-1.818-.083-2.73-.136-.913-.083-1.742-.128-2.315-.128-.256,0-.754.023-1.3.023-.543.03-1.116.053-1.584.053-.287,0-.445-.083-.445-.234,0-.106.083-.241.362-.241a3.366,3.366,0,0,0,.807-.075c.468-.106.6-.528.679-1.184.106-.95.106-2.715.106-4.774Z" transform="translate(-241.506 -381.73)" fill="#fff"></path><path id="Path_118" data-name="Path 118" d="M455.429,392.124c0-3.4,0-4.035-.03-4.752-.053-.762-.287-1.026-.777-1.184a3.014,3.014,0,0,0-.83-.106c-.234,0-.362-.053-.362-.264,0-.136.181-.189.543-.189.86,0,2.414.053,3.07.053.573,0,2.052-.053,2.934-.053.287,0,.468.053.468.189,0,.211-.128.264-.362.264a3.2,3.2,0,0,0-.679.083c-.626.106-.807.422-.86,1.207-.053.717-.053,1.35-.053,4.752v3.96c0,2.165,0,3.952.106,4.9.075.611.234.95.913,1.056a8.364,8.364,0,0,0,1.169.083c.256,0,.362.128.362.234,0,.158-.181.241-.445.241-1.508,0-3.062-.083-3.688-.083-.52,0-2.082.083-2.987.083-.287,0-.445-.083-.445-.241,0-.106.075-.234.362-.234a3.315,3.315,0,0,0,.807-.083c.468-.106.6-.422.679-1.079.106-.928.106-2.715.106-4.88Z" transform="translate(-248.077 -381.813)" fill="#fff"></path><path id="Path_119" data-name="Path 119" d="M469.349,400.7a8.747,8.747,0,0,1-.181-12.769c1.667-1.478,3.847-2.376,7.256-2.376a23.8,23.8,0,0,1,3.326.234c.86.128,1.614.287,2.285.37.264.03.339.136.339.264,0,.189-.053.445-.106,1.237-.053.739-.053,1.976-.075,2.429-.023.317-.106.551-.317.551-.181,0-.234-.181-.234-.475a3.146,3.146,0,0,0-.883-2.082,6.437,6.437,0,0,0-4.42-1.32,6.1,6.1,0,0,0-4.314,1.267c-1.69,1.478-2.1,3.643-2.1,5.83,0,5.333,4.058,7.859,7.12,7.859,2.029,0,3.145-.158,4.058-1.184a3.591,3.591,0,0,0,.777-1.5c.053-.347.106-.453.287-.453.151,0,.256.211.256.392a19.187,19.187,0,0,1-.5,2.979.778.778,0,0,1-.6.656,13.178,13.178,0,0,1-4.133.505c-3.115.015-5.77-.649-7.844-2.414" transform="translate(-251.287 -381.794)" fill="#fff"></path><path id="Path_120" data-name="Path 120" d="M500.322,395.547c.106,0,.128-.053.106-.128l-2.157-5.7c-.03-.083-.053-.211-.106-.211-.075,0-.106.128-.128.211l-2.21,5.672c-.053.106,0,.158.075.158Zm-4.888,1.237c-.128,0-.158.03-.2.158l-1.222,3.009a4.112,4.112,0,0,0-.339,1.373c0,.392.2.634.905.634h.339c.287,0,.339.106.339.234,0,.189-.128.241-.362.241-.754,0-1.818-.083-2.549-.083-.234,0-1.456.083-2.647.083-.287,0-.415-.053-.415-.241a.225.225,0,0,1,.256-.234c.211,0,.468-.023.679-.023,1.041-.158,1.426-.845,1.893-1.976l5.981-14.112c.256-.634.437-.9.679-.9.339,0,.437.211.679.709.543,1.237,4.367,10.416,5.823,13.825.883,2.029,1.531,2.323,1.946,2.4a5.381,5.381,0,0,0,.86.075c.2,0,.309.083.309.234,0,.189-.128.241-.988.241-.807,0-2.466,0-4.39-.053-.415-.03-.679-.03-.679-.189,0-.128.053-.211.287-.234a.349.349,0,0,0,.2-.5l-1.765-4.51a.22.22,0,0,0-.234-.158h-5.385Z" transform="translate(-256.887 -381.646)" fill="#fff"></path><path id="Path_121" data-name="Path 121" d="M521.307,396.081c0,2.874,0,4.3.49,4.722.392.347,1.275.475,3.04.475,1.222,0,2.1-.023,2.678-.634a2.754,2.754,0,0,0,.573-1.35c.023-.211.075-.339.256-.339.151,0,.2.234.2.5a16.59,16.59,0,0,1-.339,2.587c-.158.505-.256.611-1.456.611-1.637,0-2.964-.03-4.1-.083-1.146-.023-2.1-.053-3.04-.053-.264,0-.754.03-1.3.03-.543.023-1.116.053-1.584.053-.287,0-.445-.083-.445-.241,0-.106.083-.234.362-.234a2.974,2.974,0,0,0,.807-.083c.468-.106.6-.528.679-1.184.106-.95.106-2.715.106-4.774v-3.96c0-3.4,0-4.035-.023-4.752-.053-.762-.264-1-.988-1.214a2.98,2.98,0,0,0-.754-.083c-.256,0-.392-.083-.392-.241s.158-.211.5-.211c1.063,0,2.519.053,3.145.053.543,0,2.414-.053,3.3-.053.339,0,.49.053.49.211s-.128.241-.415.241a4.922,4.922,0,0,0-.882.083c-.626.106-.807.422-.86,1.214-.053.717-.053,1.343-.053,4.752Z" transform="translate(-263.473 -381.811)" fill="#fff"></path></g><path id="Path_122" data-name="Path 122" d="M364.616,327.093l-11.5-6.773-11.374,6.321v11.2h22.876Z" transform="translate(-178.754 -246.524)" fill="#fff"></path><g id="Group_532" data-name="Group 532" transform="translate(0 40.549)"><path id="Path_123" data-name="Path 123" d="M399.219,313.225c3.718-11.314,6.811-22.009,20.448-24.521s115.861-11,115.861-11l-116.789,5.34s-14.557.943-23.231,20.433c-3.3,10.582-15.183,12.573-20.139,12.883l.362,10.891c-.008.015,19.769-2.708,23.487-14.022" transform="translate(-187.018 -276.599)" fill="#fff"></path><path id="Path_124" data-name="Path 124" d="M438.225,301.7c7.384.128,7.633-5.808,7.633-5.808l-1.652-.128c-5.34-.256-17.023,1.463-17.023,1.463-6.509.943-12.392,19.807-12.392,19.807,6.471,1.124,7.912-4.4,7.912-4.4,9.926.86,8.523-4.6,8.523-4.6,8.523-.136,7-6.328,7-6.328" transform="translate(-196.705 -281.031)" fill="#fff"></path><path id="Path_125" data-name="Path 125" d="M488.453,291.14l-27.613,2.195c-2.036,8.131-7.889,9.428-7.889,9.428,33.466,1.162,35.5-11.623,35.5-11.623" transform="translate(-206.083 -279.902)" fill="#fff"></path><path id="Path_126" data-name="Path 126" d="M495.98,300.209s46.258-1.26,53.484-2.723,11.359-10.477,11.359-10.477l-57.617,2.1s.83,6.494-7.226,11.1" transform="translate(-216.658 -278.887)" fill="#fff"></path><path id="Path_127" data-name="Path 127" d="M457.062,319.01c13.629-.211,16.729-8.38,16.729-8.38H446.94c-1.878,6.4-8.47,8.38-8.47,8.38s4.963.211,18.592,0" transform="translate(-202.525 -284.691)" fill="#fff"></path><path id="Path_128" data-name="Path 128" d="M483.11,318.417h47.5s9.089-3.236,10.529-10.567L489.1,310.784Z" transform="translate(-213.495 -284.008)" fill="#fff"></path><path id="Path_129" data-name="Path 129" d="M453.289,327.57h-32.01a8.565,8.565,0,0,1-9.089,3.4c23.548,15.145,41.1-3.4,41.1-3.4" transform="translate(-196.066 -288.854)" fill="#fff"></path><path id="Path_130" data-name="Path 130" d="M474.61,325.908l-5.74,5.446,18.17,5.159c32.425,7.467,30.774-10.612,30.774-10.612h-43.2Z" transform="translate(-209.995 -288.444)" fill="#fff"></path><path id="Path_131" data-name="Path 131" d="M453.79,341.055c31.384,19.754,39.251,4.141,39.251,4.141l-31.392-8.176Z" transform="translate(-206.289 -291.177)" fill="#fff"></path><path id="Path_132" data-name="Path 132" d="M445.776,343.55c-3.092,3.251-10.386,2.089-10.386,2.089,18.758,24,29.8,9.753,29.8,9.753l-1.033-.37c-13.018-3.718-18.381-11.472-18.381-11.472" transform="translate(-201.768 -292.781)" fill="#fff"></path><path id="Path_133" data-name="Path 133" d="M423.862,344.493l-6.192-.943c5.37,17.287,15.7,14.142,15.7,14.142-3.922-2.512-9.5-13.2-9.5-13.2" transform="translate(-197.413 -292.781)" fill="#fff"></path><path id="Path_134" data-name="Path 134" d="M404.084,338.69l-6.4,6.388c1.033,5.966,10.944,6.389,10.944,6.389l-.83-9.994Z" transform="translate(-192.501 -291.587)" fill="#fff"></path><path id="Path_135" data-name="Path 135" d="M265.669,302.013c-8.674-19.49-23.231-20.433-23.231-20.433L125.65,276.24s102.224,8.485,115.861,11,16.729,13.2,20.448,24.513,23.661,15.251,23.661,15.251l.2-12.106c-4.963-.317-16.842-2.308-20.146-12.89" transform="translate(-125.65 -276.24)" fill="#fff"></path><path id="Path_136" data-name="Path 136" d="M276.045,295.755s-11.691-1.72-17.023-1.463l-1.652.128s.249,5.936,7.633,5.808c0,0-1.524,6.2,7,6.328,0,0-1.4,5.461,8.531,4.6,0,0,1.433,5.521,7.912,4.4-.008,0-5.891-18.864-12.4-19.807" transform="translate(-158.02 -280.67)" fill="#fff"></path><path id="Path_137" data-name="Path 137" d="M240.943,291.865,213.33,289.67s2.036,12.785,35.5,11.623c0,0-5.853-1.29-7.889-9.428" transform="translate(-147.197 -279.54)" fill="#fff"></path><path id="Path_138" data-name="Path 138" d="M189.017,287.637l-57.617-2.1s4.133,9.013,11.359,10.477,53.484,2.723,53.484,2.723c-8.055-4.6-7.226-11.1-7.226-11.1" transform="translate(-127.063 -278.525)" fill="#fff"></path><path id="Path_139" data-name="Path 139" d="M263.364,317.537s-6.585-1.976-8.463-8.387H228.05s3.1,8.176,16.729,8.387,18.585,0,18.585,0" transform="translate(-150.815 -284.327)" fill="#fff"></path><path id="Path_140" data-name="Path 140" d="M205.343,309.314,153.3,306.38c1.448,7.331,10.529,10.575,10.529,10.575h47.5Z" transform="translate(-132.445 -283.647)" fill="#fff"></path><path id="Path_141" data-name="Path 141" d="M287.769,329.512a8.58,8.58,0,0,1-9.089-3.4H246.67s17.551,18.54,41.1,3.4" transform="translate(-155.39 -288.495)" fill="#fff"></path><path id="Path_142" data-name="Path 142" d="M228.529,329.883l-5.74-5.453h-43.2s-1.652,18.072,30.773,10.612Z" transform="translate(-138.901 -288.083)" fill="#fff"></path><path id="Path_143" data-name="Path 143" d="M238.9,335.56l-31.392,8.176s7.867,15.613,39.251-4.141Z" transform="translate(-145.767 -290.818)" fill="#fff"></path><path id="Path_144" data-name="Path 144" d="M257.864,342.08s-5.37,7.754-18.381,11.472l-1.033.37s11.042,14.248,29.8-9.753c.008.008-7.286,1.162-10.386-2.089" transform="translate(-153.37 -292.42)" fill="#fff"></path><path id="Path_145" data-name="Path 145" d="M274.87,356.232s10.333,3.145,15.7-14.142l-6.192.943c0-.008-5.582,10.68-9.5,13.2" transform="translate(-162.32 -292.422)" fill="#fff"></path><path id="Path_146" data-name="Path 146" d="M301.98,339.993l-.83,9.994s9.911-.422,10.944-6.389l-6.4-6.388Z" transform="translate(-168.779 -291.223)" fill="#fff"></path></g><path id="Path_147" data-name="Path 147" d="M368.73,346.759l.068.008v15.311l-.068.015v.618l3.454-.943V346.05H368.73Z" transform="translate(-185.386 -252.847)" fill="#fff"></path><path id="Path_148" data-name="Path 148" d="M340.45,362.085l11.849,3.062v-19.1H340.45Z" transform="translate(-178.437 -252.847)" fill="#fff"></path><g id="Group_533" data-name="Group 533" transform="translate(165.085 0)"><path id="Path_149" data-name="Path 149" d="M360.79,229.555c1.29,4.827-1.41,6.992-1.41,6.992a12.179,12.179,0,0,0-5.536-12.717s5.657.9,6.947,5.725m-12.671,66.329,5.672-3.123,5.008,3.123a72.84,72.84,0,0,0,3.62-16.314,13.758,13.758,0,0,1-1.169.943c-8.312,4.314-15.047,1.637-15.047,1.637,9.126.015,15.168-7.015,16.744-9.074.106-2.187.136-4.5.075-6.909a9.879,9.879,0,0,1-2.361,2.248c-8.312,4.314-15.04,1.637-15.04,1.637,10,.015,16.322-8.448,17.091-9.534q-.215-2.523-.588-5.167a8.265,8.265,0,0,1-2.527,3.025c-7.4,4.314-13.4,1.637-13.4,1.637,8.621.015,14.15-7.9,15.123-9.39-.392-1.984-.852-4.005-1.4-6.049a7.406,7.406,0,0,1-2.278,4.073c-5.891,4.314-10.665,1.637-10.665,1.637,6.6.015,10.929-7.3,11.94-9.2-.053-.151-.09-.3-.136-.453a4.986,4.986,0,0,0-.837-1.162,8.946,8.946,0,1,0-8.455.158c.008-.008-10.213,26.708-1.38,56.26" transform="translate(-344.523 -222.48)" fill="#fff"></path></g></svg>