<svg width="18" height="24" viewBox="0 0 18 24" fill="none" xmlns="http://www.w3.org/2000/svg">
<g clip-path="url(#clip0_2068_2)">
<path d="M-4.18819e-06 11.581C-4.18819e-06 8.86236 -4.18819e-06 6.14368 -4.18819e-06 3.42502C0.0131488 2.54271 0.362789 1.69876 0.977474 1.06567C1.59216 0.432586 2.42547 0.0581914 3.307 0.0190262C5.817 -0.00497384 8.32899 -0.0109793 10.839 0.0290207C11.2694 0.046985 11.6803 0.213418 12.002 0.500029C13.824 2.27136 15.6147 4.07436 17.374 5.90903C17.6412 6.2439 17.785 6.6606 17.781 7.08902C17.8097 11.4524 17.8133 15.8164 17.792 20.181C17.717 20.9633 17.3681 21.6938 16.807 22.244C16.2459 22.7941 15.5086 23.1285 14.725 23.188C12.145 23.228 9.56498 23.209 6.98498 23.213C5.80698 23.213 4.63 23.222 3.453 23.213C2.9979 23.213 2.54729 23.1231 2.1271 22.9483C1.70691 22.7735 1.32543 22.5173 1.0046 22.1945C0.68378 21.8718 0.429956 21.4887 0.257717 21.0675C0.0854774 20.6463 -0.00176565 20.1951 0.00100289 19.74C-0.000330441 17.02 -0.000670855 14.3004 -4.18819e-06 11.581ZM1.75299 11.625C1.75299 14.2404 1.75299 16.8554 1.75299 19.47C1.72713 19.7392 1.76028 20.0107 1.85015 20.2657C1.94003 20.5207 2.08445 20.7531 2.27334 20.9465C2.46223 21.14 2.69105 21.2899 2.94384 21.3859C3.19663 21.4818 3.46731 21.5214 3.737 21.502C4.498 21.522 5.26101 21.52 6.02301 21.519C8.70701 21.519 11.392 21.519 14.076 21.499C14.3506 21.5249 14.6275 21.4895 14.8867 21.3955C15.146 21.3014 15.3812 21.151 15.5754 20.9552C15.7695 20.7593 15.9178 20.5228 16.0096 20.2627C16.1013 20.0026 16.1343 19.7254 16.106 19.451C16.11 15.727 16.11 12.0034 16.106 8.28003C16.106 7.44003 15.824 7.17503 14.98 7.15903C13.8886 7.13769 12.7977 7.11404 11.707 7.08804C11.078 7.07304 10.813 6.81503 10.765 6.17303C10.744 5.89603 10.73 5.62002 10.726 5.34302C10.714 4.47702 10.72 3.61104 10.695 2.74304C10.675 2.06004 10.367 1.69603 9.79498 1.69903C7.71698 1.70803 5.63898 1.71403 3.56198 1.75903C3.31351 1.75173 3.06631 1.79711 2.83664 1.8922C2.60696 1.98728 2.40002 2.1299 2.22943 2.3107C2.05883 2.4915 1.92846 2.70639 1.84686 2.94119C1.76526 3.17599 1.73427 3.42541 1.75598 3.67303C1.75131 6.3237 1.75032 8.97402 1.75299 11.624V11.625Z" fill="#55A1D3"/>
<path d="M8.93698 17.861C7.50165 17.861 6.06833 17.861 4.63699 17.861C4.01999 17.861 3.59399 17.53 3.57199 17.042C3.57293 16.9123 3.60121 16.7842 3.655 16.6661C3.70879 16.548 3.7869 16.4426 3.88419 16.3567C3.98148 16.2708 4.09578 16.2064 4.21964 16.1677C4.34349 16.129 4.47412 16.1168 4.603 16.132C7.50766 16.132 10.4123 16.132 13.317 16.132C13.526 16.1087 13.7362 16.1643 13.9063 16.2879C14.0765 16.4114 14.1944 16.5941 14.237 16.8C14.2916 16.9858 14.277 17.185 14.1959 17.3608C14.1148 17.5366 13.9727 17.677 13.796 17.756C13.6233 17.8304 13.4359 17.8646 13.248 17.856C11.806 17.864 10.371 17.861 8.93698 17.861Z" fill="#55A1D3"/>
<path d="M8.91999 8.96405C10.409 8.96405 11.898 8.95805 13.388 8.96405C13.5008 8.95422 13.6145 8.96865 13.7213 9.00637C13.8281 9.0441 13.9256 9.10424 14.0073 9.18277C14.0889 9.26129 14.1528 9.35637 14.1947 9.46164C14.2365 9.5669 14.2554 9.67991 14.25 9.79306C14.261 10.3011 13.975 10.5931 13.415 10.6421C13.173 10.6621 12.931 10.673 12.689 10.673C10.6283 10.673 8.56766 10.673 6.50699 10.673C5.81499 10.673 5.121 10.6731 4.43 10.6371C4.31733 10.641 4.20503 10.622 4.09989 10.5814C3.99474 10.5407 3.89891 10.4792 3.81818 10.4005C3.73745 10.3219 3.67347 10.2277 3.63013 10.1236C3.58679 10.0195 3.56497 9.90777 3.56598 9.79504C3.58067 9.56005 3.68758 9.34037 3.86344 9.1838C4.03929 9.02724 4.26986 8.94645 4.50498 8.95904C5.97498 8.96004 7.44799 8.96405 8.91999 8.96405Z" fill="#55A1D3"/>
<path d="M8.05101 14.255C6.87401 14.255 5.69701 14.255 4.52101 14.255C4.40485 14.2677 4.28732 14.2563 4.17576 14.2215C4.0642 14.1868 3.96102 14.1293 3.87269 14.0528C3.78436 13.9763 3.71279 13.8824 3.66243 13.7769C3.61206 13.6715 3.58401 13.5568 3.58003 13.44C3.57272 13.3227 3.59103 13.2052 3.63374 13.0957C3.67645 12.9862 3.74251 12.8873 3.82731 12.806C3.91212 12.7246 4.01363 12.6627 4.1248 12.6245C4.23596 12.5863 4.35412 12.5729 4.47102 12.585C6.84169 12.571 9.21235 12.569 11.583 12.579C11.6998 12.5672 11.8177 12.5812 11.9284 12.62C12.0392 12.6589 12.14 12.7216 12.2238 12.8037C12.3076 12.8859 12.3723 12.9855 12.4132 13.0954C12.4542 13.2054 12.4706 13.323 12.461 13.44C12.448 13.949 12.115 14.247 11.53 14.251C10.371 14.257 9.21101 14.251 8.05201 14.251L8.05101 14.255Z" fill="#55A1D3"/>
</g>
<defs>
<clipPath id="clip0_2068_2">
<rect width="17.806" height="23.216" fill="white"/>
</clipPath>
</defs>
</svg>
