<svg xmlns="http://www.w3.org/2000/svg" width="311.499" height="25.066" viewBox="0 0 311.499 25.066"><g id="Academy-Medical-wordmark" transform="translate(-56.22 -370.52)"><path id="Path_224" data-name="Path 224" d="M70.641,385c.15,0,.181-.093.15-.186l-2.751-7.656c-.031-.119-.062-.28-.155-.28s-.15.155-.181.28L64.9,384.78c-.031.124,0,.218.119.218h5.625Zm-6.231,1.549c-.155,0-.212.062-.275.249l-1.647,4.434a5.965,5.965,0,0,0-.461,1.891c0,.554.275.958,1.222.958H63.7c.368,0,.456.062.456.249,0,.249-.181.311-.518.311-.974,0-2.29-.093-3.237-.093-.337,0-2.015.093-3.605.093-.4,0-.58-.062-.58-.311,0-.186.124-.249.368-.249a9.006,9.006,0,0,0,.943-.062c1.4-.186,1.989-1.238,2.6-2.792L67.8,371.758c.363-.9.549-1.238.855-1.238.275,0,.456.28.767.995.73,1.7,5.62,14.348,7.578,19.062,1.16,2.792,2.046,3.222,2.688,3.377a6.567,6.567,0,0,0,1.279.124c.243,0,.4.031.4.249,0,.249-.275.311-1.4.311-1.1,0-3.331,0-5.776-.062-.549-.031-.917-.031-.917-.249,0-.186.119-.249.43-.28a.5.5,0,0,0,.275-.71l-2.445-6.573a.293.293,0,0,0-.306-.218H64.409Z" transform="translate(0)" fill="#ffffff"></path><path id="Path_225" data-name="Path 225" d="M109.232,395.673a10.274,10.274,0,0,1-.218-15c1.958-1.735,4.522-2.792,8.526-2.792a27.165,27.165,0,0,1,3.911.28c1.01.155,1.9.342,2.688.435.306.031.4.155.4.311,0,.218-.062.523-.119,1.456-.062.87-.062,2.326-.088,2.854-.031.373-.124.653-.368.653-.212,0-.275-.218-.275-.554a3.762,3.762,0,0,0-1.036-2.45c-.917-.9-2.719-1.549-5.19-1.549-2.352,0-3.849.435-5.071,1.487-1.984,1.735-2.476,4.279-2.476,6.848,0,6.262,4.766,9.236,8.371,9.236,2.383,0,3.7-.186,4.766-1.393a4.36,4.36,0,0,0,.917-1.766c.062-.4.124-.528.337-.528.181,0,.306.249.306.466a23.592,23.592,0,0,1-.58,3.5.92.92,0,0,1-.7.777,15.485,15.485,0,0,1-4.854.591c-3.683-.005-6.8-.782-9.241-2.859" transform="translate(-23.932 -3.548)" fill="#ffffff"></path><path id="Path_226" data-name="Path 226" d="M156.116,389.863c.124,0,.15-.062.124-.155l-2.538-6.7c-.031-.093-.062-.249-.119-.249-.093,0-.124.155-.155.249l-2.6,6.667c-.062.124,0,.186.093.186Zm-5.745,1.456c-.15,0-.181.031-.243.186l-1.435,3.533a4.857,4.857,0,0,0-.4,1.611c0,.461.243.741,1.067.741h.4c.337,0,.4.124.4.28,0,.218-.15.28-.43.28-.886,0-2.139-.093-2.994-.093-.275,0-1.709.093-3.113.093-.337,0-.492-.062-.492-.28a.269.269,0,0,1,.306-.28c.243,0,.549-.026.793-.026,1.222-.186,1.678-.995,2.227-2.326l7.024-16.581c.306-.746.518-1.057.793-1.057.4,0,.518.249.793.839.637,1.456,5.128,12.245,6.843,16.244,1.041,2.388,1.8,2.73,2.29,2.823a6.407,6.407,0,0,0,1.01.093c.243,0,.368.093.368.28,0,.218-.155.28-1.16.28-.948,0-2.906,0-5.164-.062-.492-.031-.793-.031-.793-.218,0-.155.062-.249.337-.28a.414.414,0,0,0,.243-.591l-2.077-5.3a.257.257,0,0,0-.275-.186h-6.314Z" transform="translate(-41.891 -3.316)" fill="#ffffff"></path><path id="Path_227" data-name="Path 227" d="M194.985,389.136c0,2.792.031,4.807.062,5.33a4.9,4.9,0,0,0,.306,1.86c.337.5,1.4,1.052,3.517,1.052a8.4,8.4,0,0,0,5.864-1.8c1.74-1.461,2.29-3.812,2.29-6.542a8.649,8.649,0,0,0-2.5-6.568A10.741,10.741,0,0,0,197,379.958a5.587,5.587,0,0,0-1.647.186c-.243.088-.337.212-.337.523-.031.9-.031,3.066-.031,5.144v3.326Zm-3.605-2.916c0-4,0-4.745-.031-5.584-.062-.9-.306-1.176-1.16-1.424a4.862,4.862,0,0,0-1.067-.093c-.275,0-.461-.093-.461-.28s.218-.249.611-.249c1.4,0,3.113.062,3.88.062.829,0,2.751-.062,4.367-.062,3.357,0,7.879,0,10.81,3a9.287,9.287,0,0,1,2.538,6.7,10.3,10.3,0,0,1-2.937,7.345c-1.217,1.243-4.061,3.1-9.013,3.1-.974,0-2.139-.093-3.206-.155-1.067-.093-2.046-.155-2.719-.155-.306,0-.886.031-1.528.031-.642.031-1.311.062-1.865.062-.332,0-.518-.093-.518-.28,0-.124.088-.28.43-.28a3.885,3.885,0,0,0,.948-.093c.549-.124.7-.622.793-1.393.124-1.114.124-3.191.124-5.61V386.22Z" transform="translate(-63.837 -3.89)" fill="#ffffff"></path><path id="Path_228" data-name="Path 228" d="M239.214,386.738c0-4,0-4.74-.031-5.584-.062-.9-.306-1.176-1.16-1.419a4.815,4.815,0,0,0-1.067-.1c-.275,0-.456-.093-.456-.28s.212-.249.611-.249c1.4,0,3.113.062,3.88.062.855,0,6.812.031,7.335,0a11.217,11.217,0,0,0,1.129-.155,3.083,3.083,0,0,1,.425-.124c.155,0,.186.124.186.249a11.2,11.2,0,0,0-.212,1.7c-.031.28-.093,1.424-.155,1.735-.031.124-.093.435-.306.435-.186,0-.212-.124-.212-.342a2.52,2.52,0,0,0-.181-.958c-.212-.461-.43-.839-1.772-.963-.456-.062-3.662-.124-4.216-.124-.124,0-.186.093-.186.249v6.506c0,.155.031.28.186.28.611,0,4.092,0,4.7-.062.642-.062,1.036-.124,1.285-.4.212-.186.306-.342.43-.342s.212.119.212.28-.062.591-.212,1.922c-.062.528-.119,1.58-.119,1.766,0,.218-.031.591-.275.591-.186,0-.243-.093-.243-.218-.031-.28-.031-.616-.093-.958-.15-.528-.487-.932-1.5-1.026-.487-.062-3.543-.124-4.211-.124-.124,0-.155.124-.155.28v2.108c0,.9-.031,3.129,0,3.906.062,1.8.886,2.2,3.636,2.2a7.111,7.111,0,0,0,2.533-.342c.673-.311.979-.87,1.16-1.953.062-.28.124-.4.306-.4.212,0,.243.337.243.616a17.678,17.678,0,0,1-.368,2.911c-.181.684-.43.684-1.435.684-2.015,0-3.636-.031-4.947-.093-1.311-.026-2.321-.062-3.113-.062-.306,0-.886.031-1.528.031-.642.026-1.316.062-1.865.062-.337,0-.523-.093-.523-.28,0-.124.093-.28.43-.28a3.885,3.885,0,0,0,.948-.093c.549-.124.7-.622.793-1.393.124-1.114.124-3.191.124-5.61v-4.636Z" transform="translate(-86.897 -4.034)" fill="#ffffff"></path><path id="Path_229" data-name="Path 229" d="M274.764,378.859c.062-.435.306-.684.518-.684.275,0,.456.124.824.834l7.21,14.69,7.21-14.877c.212-.435.456-.653.7-.653.212,0,.518.28.611.834l2.445,16.275c.243,1.642.487,2.357,1.311,2.605a5.432,5.432,0,0,0,1.528.249c.243,0,.43.093.43.249,0,.212-.306.311-.7.311-.673,0-4.491-.124-5.558-.186-.642-.031-.793-.155-.793-.311,0-.124.119-.212.306-.275.15-.062.212-.373.124-1.119l-1.5-11.406h-.093l-5.776,11.779c-.611,1.238-.767,1.487-1.067,1.487-.337,0-.642-.523-1.067-1.331-.637-1.207-2.776-5.237-3.087-5.983-.212-.5-1.8-3.812-2.688-5.641h-.093L274.272,396a8.589,8.589,0,0,0-.088,1.238c0,.5.368.684.824.777a4.529,4.529,0,0,0,.948.124c.249,0,.43.119.43.249,0,.249-.243.311-.642.311-1.129,0-2.352-.093-2.839-.093-.518,0-1.8.093-2.657.093-.275,0-.487-.062-.487-.311,0-.124.15-.249.425-.249a4.764,4.764,0,0,0,.824-.062c.73-.088.979-1.145,1.1-2.01Z" transform="translate(-102.928 -3.687)" fill="#ffffff"></path><path id="Path_230" data-name="Path 230" d="M329.426,392.4a5.341,5.341,0,0,0-.611-2.756c-.186-.4-3.849-6.2-4.8-7.594a6.05,6.05,0,0,0-1.74-1.86,2.63,2.63,0,0,0-1.129-.342c-.212,0-.4-.093-.4-.28s.181-.249.518-.249c.456,0,2.476.062,3.362.062.58,0,1.834-.062,3.051-.062.243,0,.4.062.4.249,0,.218-.186.218-.611.342-.212.062-.368.186-.368.4a2.062,2.062,0,0,0,.337.9c.487.8,4,6.972,4.46,7.718.337-.622,3.605-6.263,4-7.071a3.525,3.525,0,0,0,.4-1.393c0-.249-.119-.5-.58-.585-.243-.062-.492-.093-.492-.311,0-.186.155-.249.456-.249.886,0,1.834.062,2.626.062.58,0,2.352-.062,2.87-.062.306,0,.487.062.487.218,0,.186-.212.311-.518.311a3.217,3.217,0,0,0-1.16.311,3.636,3.636,0,0,0-1.4,1.238,89.3,89.3,0,0,0-5.227,8.428,6.184,6.184,0,0,0-.337,2.631v2.108c0,.435,0,1.518.062,2.637.062.777.306,1.274,1.1,1.393a10.16,10.16,0,0,0,1.347.093c.306,0,.456.155.456.28,0,.186-.212.28-.58.28-1.678,0-3.481-.093-4.216-.093-.673,0-2.476.093-3.481.093-.363,0-.58-.062-.58-.28,0-.124.124-.28.43-.28a4.065,4.065,0,0,0,.948-.093c.549-.119.767-.616.829-1.393.093-1.119.093-2.2.093-2.637V392.4Z" transform="translate(-127.506 -4.242)" fill="#ffffff"></path><path id="Path_231" data-name="Path 231" d="M381.842,371.333c.088-.528.275-.8.518-.8s.425.155.824.958l8.34,17.482,8.309-17.7c.249-.5.4-.741.673-.741s.461.311.549.958l2.782,19.15c.275,1.953.58,2.854,1.5,3.134a6.008,6.008,0,0,0,1.891.311c.275,0,.492.031.492.218,0,.249-.368.342-.793.342-.767,0-4.983-.093-6.206-.186-.7-.062-.886-.155-.886-.342,0-.155.124-.249.337-.342.181-.062.275-.466.155-1.331L398.49,378.8h-.124l-6.656,14.074c-.7,1.456-.855,1.735-1.129,1.735s-.58-.616-1.067-1.549c-.73-1.424-3.144-6.169-3.512-7.034-.275-.653-2.108-4.558-3.18-6.884H382.7l-1.585,12.339a12.142,12.142,0,0,0-.093,1.456c0,.591.4.865.917.995a5.813,5.813,0,0,0,1.285.155c.243,0,.456.062.456.218,0,.28-.275.342-.73.342-1.285,0-2.663-.093-3.206-.093-.58,0-2.046.093-3.025.093-.306,0-.549-.062-.549-.342,0-.155.181-.218.487-.218a3.836,3.836,0,0,0,.917-.093c.855-.186,1.1-1.393,1.254-2.45Z" transform="translate(-154.219 -0.005)" fill="#ffffff"></path><path id="Path_232" data-name="Path 232" d="M444.5,386.018c0-4,0-4.74-.031-5.579-.062-.9-.306-1.176-1.16-1.424a4.817,4.817,0,0,0-1.067-.1c-.275,0-.461-.088-.461-.28s.212-.249.611-.249c1.4,0,3.118.062,3.88.062.855,0,6.812.031,7.33,0a11.355,11.355,0,0,0,1.134-.155,2.89,2.89,0,0,1,.425-.124c.155,0,.181.124.181.249a12.082,12.082,0,0,0-.212,1.7c-.031.28-.093,1.424-.155,1.735-.031.124-.093.435-.306.435-.186,0-.212-.124-.212-.342a2.52,2.52,0,0,0-.181-.958c-.212-.461-.43-.834-1.772-.963-.456-.062-3.662-.124-4.216-.124-.124,0-.186.093-.186.249v6.506c0,.155.031.28.186.28.611,0,4.092,0,4.7-.062.642-.062,1.036-.124,1.285-.4.212-.186.306-.342.425-.342s.212.124.212.28-.062.591-.212,1.922c-.062.528-.119,1.58-.119,1.766,0,.218-.031.591-.275.591-.181,0-.243-.093-.243-.218-.031-.28-.031-.616-.093-.958-.15-.528-.487-.932-1.5-1.026-.487-.062-3.543-.124-4.211-.124-.124,0-.155.124-.155.28v2.1c0,.9-.031,3.134,0,3.906.062,1.8.886,2.2,3.636,2.2a7.112,7.112,0,0,0,2.533-.342c.668-.311.979-.87,1.16-1.953.062-.28.119-.4.306-.4.212,0,.249.337.249.616a17.676,17.676,0,0,1-.368,2.911c-.181.684-.43.684-1.435.684-2.015,0-3.636-.031-4.947-.093-1.316-.026-2.321-.062-3.113-.062-.306,0-.886.031-1.528.031-.642.026-1.31.062-1.86.062-.337,0-.523-.093-.523-.28,0-.124.088-.28.425-.28a3.885,3.885,0,0,0,.948-.093c.549-.124.7-.622.793-1.393.124-1.119.124-3.2.124-5.61v-4.631Z" transform="translate(-185.844 -3.687)" fill="#ffffff"></path><path id="Path_233" data-name="Path 233" d="M482.664,389.136c0,2.792.031,4.807.062,5.33a4.9,4.9,0,0,0,.306,1.86c.337.5,1.4,1.052,3.512,1.052a8.385,8.385,0,0,0,5.864-1.8c1.74-1.461,2.29-3.812,2.29-6.542a8.649,8.649,0,0,0-2.5-6.568,10.741,10.741,0,0,0-7.516-2.512,5.627,5.627,0,0,0-1.652.186c-.243.088-.337.212-.337.523-.031.9-.031,3.066-.031,5.144v3.326Zm-3.605-2.916c0-4,0-4.745-.026-5.584-.062-.9-.311-1.176-1.16-1.424a4.862,4.862,0,0,0-1.067-.093c-.275,0-.456-.093-.456-.28s.212-.249.611-.249c1.4,0,3.113.062,3.88.062.824,0,2.751-.062,4.367-.062,3.362,0,7.879,0,10.81,3a9.286,9.286,0,0,1,2.533,6.7,10.3,10.3,0,0,1-2.932,7.345c-1.222,1.243-4.061,3.1-9.013,3.1-.979,0-2.139-.093-3.206-.155-1.067-.093-2.046-.155-2.719-.155-.306,0-.886.031-1.528.031-.642.031-1.316.062-1.865.062-.337,0-.518-.093-.518-.28,0-.124.093-.28.43-.28a3.914,3.914,0,0,0,.948-.093c.549-.124.7-.622.793-1.393.119-1.114.119-3.191.119-5.61V386.22Z" transform="translate(-202.507 -3.89)" fill="#ffffff"></path><path id="Path_234" data-name="Path 234" d="M524.417,386.81c0-4,0-4.74-.031-5.579-.062-.9-.337-1.207-.917-1.393a3.385,3.385,0,0,0-.979-.124c-.275,0-.43-.062-.43-.306,0-.155.218-.218.642-.218,1.01,0,2.839.062,3.605.062.673,0,2.414-.062,3.45-.062.337,0,.549.062.549.218,0,.249-.15.306-.43.306a3.35,3.35,0,0,0-.793.1c-.73.119-.948.492-1.01,1.419-.062.839-.062,1.58-.062,5.579v4.652c0,2.543,0,4.646.124,5.765.088.715.275,1.119,1.067,1.238a9.844,9.844,0,0,0,1.373.093c.306,0,.425.155.425.28,0,.186-.212.28-.518.28-1.766,0-3.605-.093-4.336-.093-.611,0-2.445.093-3.512.093-.337,0-.523-.093-.523-.28,0-.124.088-.28.43-.28a3.883,3.883,0,0,0,.948-.093c.549-.124.7-.5.793-1.269.124-1.088.124-3.191.124-5.734V386.81Z" transform="translate(-224.539 -4.179)" fill="#ffffff"></path><path id="Path_235" data-name="Path 235" d="M547.772,396.833a10.274,10.274,0,0,1-.218-15c1.958-1.74,4.522-2.792,8.526-2.792a27.161,27.161,0,0,1,3.911.28c1.01.155,1.9.342,2.688.435.306.031.4.155.4.311,0,.218-.062.523-.119,1.456-.062.865-.062,2.326-.093,2.854-.031.373-.119.653-.368.653-.207,0-.275-.218-.275-.554a3.736,3.736,0,0,0-1.036-2.45c-.917-.9-2.719-1.549-5.19-1.549-2.352,0-3.849.435-5.071,1.487-1.984,1.735-2.476,4.279-2.476,6.848,0,6.263,4.766,9.236,8.371,9.236,2.383,0,3.7-.186,4.766-1.393a4.359,4.359,0,0,0,.917-1.766c.062-.4.124-.528.337-.528.181,0,.306.249.306.466a23.6,23.6,0,0,1-.58,3.5.92.92,0,0,1-.7.777,15.486,15.486,0,0,1-4.854.591c-3.678-.005-6.791-.782-9.236-2.859" transform="translate(-235.312 -4.107)" fill="#ffffff"></path><path id="Path_236" data-name="Path 236" d="M596.381,390.443c.124,0,.15-.062.124-.155l-2.538-6.7c-.031-.093-.062-.249-.119-.249-.093,0-.124.155-.155.249l-2.6,6.667c-.062.124,0,.186.093.186Zm-5.745,1.456c-.155,0-.181.031-.243.186l-1.435,3.533a4.857,4.857,0,0,0-.4,1.611c0,.461.243.741,1.067.741h.4c.337,0,.4.124.4.28,0,.218-.15.28-.43.28-.886,0-2.139-.093-2.994-.093-.275,0-1.709.093-3.113.093-.337,0-.487-.062-.487-.28a.269.269,0,0,1,.306-.28c.243,0,.549-.026.793-.026,1.217-.186,1.678-.995,2.227-2.326l7.024-16.581c.306-.746.518-1.057.793-1.057.4,0,.518.249.793.839.642,1.456,5.128,12.245,6.843,16.244,1.041,2.388,1.8,2.73,2.289,2.823a6.408,6.408,0,0,0,1.01.093c.243,0,.368.093.368.28,0,.218-.15.28-1.16.28-.948,0-2.9,0-5.159-.062-.487-.031-.793-.031-.793-.218,0-.155.062-.249.337-.28a.411.411,0,0,0,.243-.585l-2.077-5.3a.257.257,0,0,0-.275-.186h-6.325Z" transform="translate(-254.106 -3.596)" fill="#ffffff"></path><path id="Path_237" data-name="Path 237" d="M635.418,391.447c0,3.377,0,5.05.58,5.548.456.4,1.5.554,3.574.554,1.435,0,2.476-.031,3.144-.741a3.212,3.212,0,0,0,.673-1.585c.026-.249.088-.4.306-.4.181,0,.243.28.243.585a19.816,19.816,0,0,1-.4,3.035c-.181.591-.306.715-1.715.715-1.922,0-3.481-.031-4.822-.093-1.347-.031-2.476-.062-3.574-.062-.306,0-.886.031-1.528.031-.642.031-1.311.062-1.865.062-.332,0-.518-.1-.518-.28,0-.119.093-.28.43-.28a3.886,3.886,0,0,0,.948-.093c.549-.119.7-.616.793-1.393.119-1.114.119-3.2.119-5.61V386.79c0-4,0-4.74-.026-5.584-.062-.9-.306-1.176-1.16-1.424a3.513,3.513,0,0,0-.886-.093c-.306,0-.456-.093-.456-.28s.181-.249.58-.249c1.248,0,2.963.062,3.693.062.642,0,2.839-.062,3.88-.062.4,0,.58.062.58.249s-.155.28-.487.28a5.9,5.9,0,0,0-1.041.093c-.73.124-.948.5-1.01,1.424-.062.839-.062,1.58-.062,5.584v4.657Z" transform="translate(-276.22 -4.165)" fill="#ffffff"></path></g></svg>
