<svg xmlns="http://www.w3.org/2000/svg" width="105.002" height="105" viewBox="0 0 105.002 105"><g id="supplychain-icon" transform="translate(-99.388 -119.005)"><path id="Path_242" data-name="Path 242" d="M196.04,250.955a35.383,35.383,0,1,1,35.22,35.39A35.375,35.375,0,0,1,196.04,250.955Zm19.614-16.446c-2.687-1.066-5.32-2.113-8.007-3.181a30.522,30.522,0,0,0-6.992,17.354H212.9A48.344,48.344,0,0,1,215.654,234.51Zm34.291,18.73a48.2,48.2,0,0,1-2.757,14.175L255.2,270.6a30.521,30.521,0,0,0,6.992-17.358Zm-49.291,0a30.518,30.518,0,0,0,7,17.358c2.717-1.079,5.35-2.123,8.005-3.179A48.231,48.231,0,0,1,212.9,253.24Zm61.534-4.564a30.5,30.5,0,0,0-6.992-17.347c-2.708,1.077-5.341,2.123-8.005,3.181a48.387,48.387,0,0,1,2.757,14.166Zm-33.051.007V236.837c-3.055-.391-6.066-.777-9.117-1.167a43.5,43.5,0,0,0-2.609,13.014Zm4.571-11.848V248.68h11.726a43.348,43.348,0,0,0-2.612-13.01Zm0,16.407v11.85l9.117,1.169a43.479,43.479,0,0,0,2.607-13.017C241.5,253.242,237.618,253.242,233.706,253.242Zm-16.3-.012a43.59,43.59,0,0,0,2.621,13.028l9.108-1.164V253.229Zm16.3,27.844a40.623,40.623,0,0,0,7.275-10.46,47.48,47.48,0,0,0-7.275-.878Zm7.251-49.81a40.708,40.708,0,0,0-7.245-10.4v11.3A37.156,37.156,0,0,0,240.951,231.263Zm-19.062.011a37.445,37.445,0,0,0,7.236.873V220.866A40.762,40.762,0,0,0,221.89,231.274Zm7.249,49.757v-11.3a47.089,47.089,0,0,0-7.215.873C222.561,272.741,226.978,279.125,229.139,281.031Zm11.058-.542a30.334,30.334,0,0,0,11.668-6.447c-2.2-.824-4.291-1.608-6.4-2.4A50.534,50.534,0,0,1,240.2,280.489ZM217.381,230.28a50.782,50.782,0,0,1,5.267-8.845,30.325,30.325,0,0,0-11.669,6.448Zm22.818-8.837a50.656,50.656,0,0,1,5.233,8.763,46.559,46.559,0,0,0,6.36-2.387A30.054,30.054,0,0,0,240.2,221.443Zm-17.544,59.051a50.748,50.748,0,0,1-5.278-8.848l-6.4,2.4A30.362,30.362,0,0,0,222.655,280.494Z" transform="translate(-79.535 -79.476)" fill="#55a1d3"></path><path id="Path_243" data-name="Path 243" d="M210.549,336.206c-.425.53-.832,1.038-1.243,1.544a2.1,2.1,0,0,1-3.778-.625q-1.958-5.053-3.923-10.1a2.021,2.021,0,0,1,2.2-2.86c2.557.36,5.108.776,7.66,1.169,1.061.163,2.122.338,3.184.487a2.116,2.116,0,0,1,1.4,3.544c-.684.827-1.344,1.67-2.053,2.554.338.174.641.333.949.483a46.607,46.607,0,0,0,15.849,4.587,46.9,46.9,0,0,0,50.226-33.641,47.337,47.337,0,0,0-3.87-35.862,2.728,2.728,0,0,1,.361-3.473,2.664,2.664,0,0,1,4.233.622,50.56,50.56,0,0,1,3.847,8.706,51.969,51.969,0,0,1,2.614,20.687,52.407,52.407,0,0,1-42.225,47.648,52.111,52.111,0,0,1-35-5.24C210.855,336.365,210.727,336.3,210.549,336.206Z" transform="translate(-83.972 -118.682)" fill="#e2e2e2"></path><path id="Path_244" data-name="Path 244" d="M176.949,125.318c.48-.655.94-1.288,1.4-1.92a2.085,2.085,0,0,1,3.739.375q2.229,4.989,4.424,9.99a2.036,2.036,0,0,1-2.2,2.968q-5.435-.579-10.871-1.156a2.093,2.093,0,0,1-1.512-3.374c.586-.809,1.179-1.615,1.8-2.467-.337-.17-.639-.329-.946-.478a46.108,46.108,0,0,0-23.158-4.8c-14.708.838-26.588,7.166-35.5,18.892a45.3,45.3,0,0,0-8.876,22.09,46.644,46.644,0,0,0,5.379,28.788,2.7,2.7,0,0,1-.021,2.965,2.556,2.556,0,0,1-2.444,1.22,2.611,2.611,0,0,1-2.2-1.436,52.638,52.638,0,0,1-6.542-27.23,52.431,52.431,0,0,1,31.969-46.612,50.9,50.9,0,0,1,17.423-4.047,52.543,52.543,0,0,1,27.7,6.007C176.651,125.167,176.791,125.236,176.949,125.318Z" transform="translate(0 0)" fill="#e2e2e2"></path></g></svg>
