<svg xmlns="http://www.w3.org/2000/svg" width="119.371" height="70.967" viewBox="0 0 119.371 70.967"><g id="team-icon" transform="translate(-162.45 -261.49)"><g id="Group_542" data-name="Group 542" transform="translate(242.665 273.513)"><path id="Path_249" data-name="Path 249" d="M511.277,336.071a16.029,16.029,0,1,0-23.8,0,18.376,18.376,0,0,0-5.915,5.226l4.671,3.406a12.669,12.669,0,0,1,6.7-4.686,15.972,15.972,0,0,0,12.893,0,12.616,12.616,0,0,1,9.107,12.1v12.591h5.782V352.116A18.393,18.393,0,0,0,511.277,336.071Zm-22.148-10.723a10.246,10.246,0,1,1,10.246,10.246A10.258,10.258,0,0,1,489.129,325.347Z" transform="translate(-481.56 -309.32)" fill="#e2e2e2"></path></g><g id="Group_543" data-name="Group 543" transform="translate(162.45 273.513)"><path id="Path_250" data-name="Path 250" d="M195.7,336.056a16.026,16.026,0,1,0-23.815.015,18.39,18.39,0,0,0-9.436,16.047v12.591h5.782V352.118a12.618,12.618,0,0,1,9.107-12.1,15.983,15.983,0,0,0,12.9,0,12.545,12.545,0,0,1,7.164,5.382l4.887-3.089A18.409,18.409,0,0,0,195.7,336.056Zm-22.163-10.708a10.246,10.246,0,1,1,10.246,10.246A10.257,10.257,0,0,1,173.538,325.347Z" transform="translate(-162.45 -309.32)" fill="#e2e2e2"></path></g><g id="Group_544" data-name="Group 544" transform="translate(195.402 261.49)"><path id="Path_251" data-name="Path 251" d="M334.106,295.513a19.833,19.833,0,1,0-27.671,0,22.91,22.91,0,0,0-12.9,20.585v16.359h5.53V316.1a17.385,17.385,0,0,1,12.9-16.771,19.763,19.763,0,0,0,16.6,0,17.383,17.383,0,0,1,12.9,16.771v16.359H347V316.1A22.9,22.9,0,0,0,334.106,295.513Zm-28.136-14.19a14.3,14.3,0,1,1,14.3,14.3A14.319,14.319,0,0,1,305.97,281.323Z" transform="translate(-293.54 -261.49)" fill="#55a1d3"></path></g></g></svg>
