<svg xmlns="http://www.w3.org/2000/svg" width="109.968" height="81.63" viewBox="0 0 109.968 81.63"><g id="news-icon" transform="translate(-101.184 -177.146)"><path id="Path_245" data-name="Path 245" d="M135.171,230.042c0,1.66-.114,3.222.024,4.762.277,3.093.666,6.179,1.068,9.262.152,1.175.512,2.324.7,3.5a8.424,8.424,0,0,1-3.057,8,11.262,11.262,0,0,1-15.742-1.072,7.464,7.464,0,0,1-1.836-5.06c.062-2.352.191-4.7.22-7.057a83.18,83.18,0,0,0-1.683-15.63c-.2-1.125-.538-1.568-1.691-1.65-2.644-.193-5.272-.606-7.916-.788-2.361-.163-3.574-1.322-3.576-3.712q0-9.043,0-18.088c0-2.37,1.155-3.486,3.508-3.622a113.424,113.424,0,0,0,17.562-2.427A153.261,153.261,0,0,0,160.3,182.924c2.855-1.465,5.651-3.046,8.439-4.635a3.287,3.287,0,0,1,3.536-.248,3.336,3.336,0,0,1,1.588,3.193q0,30.3.017,60.6c.006,3.429-2.919,4.327-5.2,3.016A169.672,169.672,0,0,0,139,231.2c-1.068-.365-2.15-.694-3.227-1.035C135.638,230.12,135.487,230.1,135.171,230.042Zm31.152,6.589V186.686c-.395.187-.643.294-.879.422a162.325,162.325,0,0,1-18.619,8.61,146.5,146.5,0,0,1-26.6,7.655c-.7.129-1.037.389-1.032,1.188.037,4.56.017,9.119.024,13.679,0,.3.1.6.1.907,0,.5.263.639.729.729,2.185.419,4.367.856,6.536,1.348a152.365,152.365,0,0,1,36.094,13.528C163.832,235.35,165,235.948,166.323,236.631Zm-45.576-10.253c.081.589.136.944.176,1.3.457,4.026,1.063,8.043,1.318,12.08.187,2.976-.066,5.983-.158,8.975a2.568,2.568,0,0,0,1.272,2.374,5.377,5.377,0,0,0,6.152-.488,2.493,2.493,0,0,0,.859-2.541,73.937,73.937,0,0,1-1.876-17.244c0-2.724,0-2.741-2.656-3.365C124.209,227.087,122.57,226.765,120.747,226.378ZM113,204.745c-1.612.158-3.152.285-4.683.49-.195.026-.474.468-.475.72q-.044,5.686,0,11.375a.9.9,0,0,0,.5.7c1.522.229,3.057.382,4.652.565C113,213.92,113,209.388,113,204.745Z" fill="#55a1d3" stroke="#fff" stroke-width="1"></path><path id="Path_246" data-name="Path 246" d="M555.916,459.008a3.477,3.477,0,0,1-2.043,2.91,2.933,2.933,0,0,1-3.431-.756q-4.593-4.739-9.159-9.5c-.826-.859-1.674-1.7-2.477-2.578a3.076,3.076,0,1,1,4.465-4.226c3.888,4.019,7.767,8.046,11.6,12.118A8.262,8.262,0,0,1,555.916,459.008Z" transform="translate(-356.114 -217.312)" fill="#e2e2e2"></path><path id="Path_247" data-name="Path 247" d="M552.674,178.3a2.732,2.732,0,0,1,2.783,1.709,2.894,2.894,0,0,1-.487,3.334c-2.069,2.21-4.177,4.384-6.273,6.569q-2.7,2.812-5.416,5.612a3.077,3.077,0,0,1-5.342-1.551,2.838,2.838,0,0,1,.823-2.6c3.885-4.07,7.773-8.138,11.714-12.153a8.376,8.376,0,0,1,2.069-1.149C552.589,178.143,552.632,178.221,552.674,178.3Z" transform="translate(-356.122 -0.361)" fill="#e2e2e2"></path><path id="Path_248" data-name="Path 248" d="M584.084,344.559c2.721,0,5.441-.009,8.162,0,1.92.007,3.227,1.138,3.29,2.816a3.052,3.052,0,0,1-3.159,3.3c-5.562.053-11.127.04-16.689,0a3.059,3.059,0,0,1-3.009-2.133,2.762,2.762,0,0,1,.89-3.222,3.862,3.862,0,0,1,2.08-.727C578.457,344.511,581.271,344.559,584.084,344.559Z" transform="translate(-384.387 -136.275)" fill="#e2e2e2"></path></g></svg>
